# xmcd
#
# Track frame offsets:
#	150
#	17301
#	32310
#	49572
#	62778
#	73583
#	90384
#	104823
#	120313
#	134085
#	149949
#	162454
#	174614
#	185929
#	204405
#	217355
#	232764
#	244295
#	258177
#	270859
#	280663
#	293657
#	305923
#	323731
#	335300
#
# Disc length: 4672 seconds
#
# Revision: 0
# Processed by: cddbd v1.5.1PL0 Copyright (c) Steve Scherf et al.
# Submitted via: EasyCDDAExtractor 7.5.0.1
#
DISCID=7a123e19
DTITLE=Olivia Newton-John - 48 Original Tracks [CD1]
DYEAR=1994
DGENRE=Country
TTITLE0=Love Song
TTITLE1=Banks Of The Ohio
TTITLE2=Me And Bobby McGee
TTITLE3=If Not For You
TTITLE4=Help Me Make It Through The Night
TTITLE5=If You Could Read My Mind
TTITLE6=In A Station
TTITLE7=Where Are You Going To My Love
TTITLE8=Lullaby
TTITLE9=No Regrets
TTITLE10=If I Gotta Leave
TTITLE11=Would You Follow Me
TTITLE12=If
TTITLE13=It's So Hard To Say Goodbye
TTITLE14=Winterwood
TTITLE15=What Is Life
TTITLE16=Changes
TTITLE17=Everything I Own
TTITLE18=I'm A Small And Lonely Light
TTITLE19=Just A Little Too Much
TTITLE20=Living In Harmony
TTITLE21=Why Don't You Write Me
TTITLE22=Angel Of The Morning
TTITLE23=Mary Skeffington
TTITLE24=If We Only Have Love
EXTD=YEAR: 1994 ID3G: 2\n
EXTT0=
EXTT1=
EXTT2=
EXTT3=
EXTT4=
EXTT5=
EXTT6=
EXTT7=
EXTT8=
EXTT9=
EXTT10=
EXTT11=
EXTT12=
EXTT13=
EXTT14=
EXTT15=
EXTT16=
EXTT17=
EXTT18=
EXTT19=
EXTT20=
EXTT21=
EXTT22=
EXTT23=
EXTT24=
PLAYORDER=
